# xmcd
#
# Track frame offsets:
#       150
#       36774
#       56833
#       74223
#       102543
#       134656
#       163572
#       177045
#       198633
#       224812
#       244379
#       274735
#       309136
#       335949
#
# Disc length: 4710 seconds
#
# Revision: 2
# Processed by: cddbd v1.5.1PL0 Copyright (c) Steve Scherf et al.
# Submitted via: WaveLab 4.01
#
DISCID=ec12640e
DTITLE=Various Artist - Klubb Attack Vol. 6
DYEAR=2001
DGENRE=Dance
TTITLE0=Alex Bartlett - Amnesia (MArc Dwan pres. Green Court Mix)
TTITLE1=Direct Drivers - Slippin' Sneaker (Original)
TTITLE2=Mike Dragon - Infinity 2001
TTITLE3=The Robot and The Sun - The Sun (Maxi Mix)
TTITLE4=Intimo - Spirit in the sky
TTITLE5=Bush - Future (Part One)
TTITLE6=Richthoven - Shokkfever
TTITLE7=Simon Foy - Inside out (Freefall Mix)
TTITLE8=DJ Session One - Journey trough the time (Syntome Remix)
TTITLE9=Dee Mark - Time@Space
TTITLE10=Bismark - Triplet (Paranoxia Mix)
TTITLE11=DJ Sequenza - I´m gone
TTITLE12=DJ Spoke vs. Vespa 63 pres. Soda P.O.P. - Another state of mind
TTITLE13=Terence - Maniac 2001
EXTD=
EXTT0=
EXTT1=
EXTT2=
EXTT3=
EXTT4=
EXTT5=
EXTT6=
EXTT7=
EXTT8=
EXTT9=
EXTT10=
EXTT11=
EXTT12=
EXTT13=
PLAYORDER=
